# xmcd
#
# Track frame offsets:
#	150
#	14921
#	26834
#	42533
#	56018
#	74473
#
# Disc length: 1190 seconds
# Revision: 2
# Processed by: cddbd v1.5.2PL0 Copyright (c) Steve Scherf et al.
# Submitted via: dBpowerAMP V12.0
#
DISCID=5a04a406
DTITLE=Various Artist - Only Me (2 of 2)
DYEAR=2014
DGENRE=Country
TTITLE0=Rhonda Vincent - Teardrops Over You
TTITLE1=Rhonda Vincent - Once a Day
TTITLE2=Rhonda Vincent and Willie Nelson - Beneath Still Waters
TTITLE3=Rhonda Vincent - Bright Lights and Country Music
TTITLE4=Rhonda Vincent and Daryle Singletary - When the Grass Grows Over Me
TTITLE5=Rhonda Vincent - Drivin' Nails
EXTD=
EXTT0=
EXTT1=
EXTT2=
EXTT3=
EXTT4=
EXTT5=
PLAYORDER=
